<?xml version="1.0" encoding="utf-8"?>
<!-- Generator: Adobe Illustrator 26.0.1, SVG Export Plug-In . SVG Version: 6.00 Build 0)  -->
<svg version="1.1" id="Layer_1" xmlns="http://www.w3.org/2000/svg" xmlns:xlink="http://www.w3.org/1999/xlink" x="0px" y="0px"
	 viewBox="0 0 190 40" style="enable-background:new 0 0 190 40;" xml:space="preserve">
<style type="text/css">
	.st0{display:none;fill:#FFFFFF;}
	.st1{fill:#AC6AFF;}
	.st2{fill:#FFFFFF;}
	.st3{fill:none;}
	.st4{display:none;}
</style>
<g>
	<path class="st0" d="M56,30.7V10.3h8.5c1.5,0,2.8,0.2,3.8,0.6c1,0.4,1.8,1,2.3,1.8c0.5,0.8,0.8,1.7,0.8,2.7c0,0.8-0.2,1.5-0.5,2.1
		c-0.3,0.6-0.8,1.1-1.3,1.5c-0.6,0.4-1.2,0.7-2,0.8v0.2c0.8,0,1.6,0.3,2.3,0.7c0.7,0.4,1.3,1,1.7,1.7c0.4,0.7,0.6,1.6,0.6,2.5
		c0,1.1-0.3,2.1-0.8,2.9c-0.6,0.9-1.4,1.5-2.4,2c-1.1,0.5-2.3,0.7-3.8,0.7H56z M60.9,26.7h3c1.1,0,1.9-0.2,2.4-0.6
		c0.5-0.4,0.8-1,0.8-1.7c0-0.5-0.1-1-0.4-1.4c-0.2-0.4-0.6-0.7-1-0.9c-0.5-0.2-1-0.3-1.6-0.3h-3.1V26.7z M60.9,18.7h2.7
		c0.5,0,1-0.1,1.4-0.3c0.4-0.2,0.7-0.4,1-0.8c0.2-0.3,0.4-0.7,0.4-1.2c0-0.7-0.2-1.2-0.7-1.6s-1.1-0.6-2-0.6h-2.8V18.7z M73.5,30.7
		V15.4h4.7v2.8h0.2c0.3-1,0.7-1.8,1.4-2.2c0.6-0.5,1.4-0.7,2.2-0.7c0.2,0,0.5,0,0.7,0c0.2,0,0.5,0.1,0.7,0.1v4.2
		c-0.2-0.1-0.5-0.1-0.9-0.2c-0.4,0-0.7-0.1-1-0.1c-0.6,0-1.1,0.1-1.6,0.4c-0.5,0.3-0.8,0.6-1.1,1.1c-0.3,0.5-0.4,1-0.4,1.6v8.3H73.5
		z M87.9,31c-1,0-1.8-0.2-2.6-0.5c-0.7-0.3-1.3-0.8-1.8-1.5c-0.4-0.7-0.6-1.5-0.6-2.5c0-0.8,0.1-1.6,0.4-2.1
		c0.3-0.6,0.7-1.1,1.2-1.4c0.5-0.4,1.1-0.6,1.8-0.8c0.7-0.2,1.4-0.3,2.2-0.4c0.9-0.1,1.6-0.2,2.1-0.2c0.5-0.1,0.9-0.2,1.2-0.4
		c0.2-0.2,0.4-0.4,0.4-0.7v0c0-0.5-0.2-0.9-0.5-1.2c-0.4-0.3-0.8-0.4-1.4-0.4c-0.6,0-1.2,0.1-1.6,0.4s-0.6,0.7-0.7,1.2l-4.5-0.2
		c0.1-0.9,0.5-1.8,1-2.5c0.6-0.7,1.3-1.3,2.3-1.7c1-0.4,2.1-0.6,3.5-0.6c1,0,1.9,0.1,2.7,0.3c0.8,0.2,1.5,0.6,2.1,1
		c0.6,0.4,1.1,1,1.4,1.6c0.3,0.6,0.5,1.3,0.5,2.2v10.4h-4.6v-2.1h-0.1c-0.3,0.5-0.6,1-1,1.3c-0.4,0.4-0.9,0.6-1.5,0.8
		C89.2,30.9,88.6,31,87.9,31z M89.4,27.8c0.5,0,1-0.1,1.4-0.3c0.4-0.2,0.8-0.5,1-0.9c0.3-0.4,0.4-0.8,0.4-1.3v-1.5
		C92,23.9,91.9,24,91.7,24c-0.2,0.1-0.4,0.1-0.6,0.2c-0.2,0.1-0.5,0.1-0.7,0.1c-0.2,0-0.5,0.1-0.7,0.1c-0.5,0.1-0.8,0.2-1.2,0.3
		c-0.3,0.2-0.6,0.4-0.7,0.6c-0.2,0.2-0.2,0.5-0.2,0.9c0,0.5,0.2,0.9,0.5,1.2C88.4,27.6,88.8,27.8,89.4,27.8z M98.9,30.7V15.4h4.9
		v15.3H98.9z M101.3,13.7c-0.7,0-1.3-0.2-1.8-0.7c-0.5-0.5-0.7-1-0.7-1.7c0-0.6,0.2-1.2,0.7-1.6c0.5-0.5,1.1-0.7,1.8-0.7
		c0.7,0,1.3,0.2,1.8,0.7c0.5,0.5,0.7,1,0.7,1.6c0,0.6-0.2,1.2-0.7,1.7C102.6,13.4,102,13.7,101.3,13.7z M110.6,22v8.7h-4.9V15.4h4.6
		v2.8h0.2c0.3-0.9,0.9-1.7,1.7-2.2c0.8-0.5,1.8-0.8,2.9-0.8c1.1,0,2,0.2,2.8,0.7c0.8,0.5,1.4,1.1,1.8,2c0.4,0.9,0.7,1.9,0.7,3v9.7
		h-4.9v-8.8c0-0.8-0.2-1.5-0.6-2c-0.4-0.5-1-0.7-1.8-0.7c-0.5,0-1,0.1-1.4,0.3c-0.4,0.2-0.7,0.5-0.9,0.9
		C110.7,20.9,110.6,21.4,110.6,22z"/>
	<polygon class="st0" points="125.2,30.7 121.2,15.4 126.1,15.4 128.1,25.2 128.3,25.2 130.5,15.4 135.2,15.4 137.5,25.1 
		137.6,25.1 139.6,15.4 144.5,15.4 140.5,30.7 135.3,30.7 132.9,21.8 132.8,21.8 130.4,30.7 	"/>
	<path class="st0" d="M149.6,31c-1,0-1.8-0.2-2.6-0.5c-0.7-0.3-1.3-0.8-1.8-1.5c-0.4-0.7-0.6-1.5-0.6-2.5c0-0.8,0.1-1.6,0.4-2.1
		c0.3-0.6,0.7-1.1,1.2-1.4c0.5-0.4,1.1-0.6,1.8-0.8c0.7-0.2,1.4-0.3,2.2-0.4c0.9-0.1,1.6-0.2,2.1-0.2c0.5-0.1,0.9-0.2,1.2-0.4
		c0.2-0.2,0.4-0.4,0.4-0.7v0c0-0.5-0.2-0.9-0.5-1.2c-0.4-0.3-0.8-0.4-1.4-0.4c-0.6,0-1.2,0.1-1.6,0.4c-0.4,0.3-0.6,0.7-0.7,1.2
		l-4.5-0.2c0.1-0.9,0.5-1.8,1-2.5c0.6-0.7,1.3-1.3,2.3-1.7c1-0.4,2.1-0.6,3.5-0.6c1,0,1.9,0.1,2.7,0.3c0.8,0.2,1.5,0.6,2.1,1
		c0.6,0.4,1.1,1,1.4,1.6c0.3,0.6,0.5,1.3,0.5,2.2v10.4h-4.6v-2.1h-0.1c-0.3,0.5-0.6,1-1,1.3c-0.4,0.4-0.9,0.6-1.5,0.8
		C151,30.9,150.4,31,149.6,31z M151.1,27.8c0.5,0,1-0.1,1.4-0.3c0.4-0.2,0.8-0.5,1-0.9c0.3-0.4,0.4-0.8,0.4-1.3v-1.5
		c-0.1,0.1-0.3,0.1-0.5,0.2c-0.2,0.1-0.4,0.1-0.6,0.2c-0.2,0.1-0.5,0.1-0.7,0.1c-0.2,0-0.5,0.1-0.7,0.1c-0.5,0.1-0.8,0.2-1.2,0.3
		c-0.3,0.2-0.6,0.4-0.7,0.6c-0.2,0.2-0.2,0.5-0.2,0.9c0,0.5,0.2,0.9,0.5,1.2C150.1,27.6,150.6,27.8,151.1,27.8z"/>
	<polygon class="st0" points="174.9,15.4 169.7,30.7 164.1,30.7 158.9,15.4 164,15.4 166.8,26 166.9,26 169.8,15.4 	"/>
	<path class="st0" d="M182.3,31c-1.6,0-3-0.3-4.1-0.9c-1.2-0.6-2-1.5-2.7-2.7c-0.6-1.2-0.9-2.6-0.9-4.2c0-1.6,0.3-3,0.9-4.1
		c0.6-1.2,1.5-2.1,2.6-2.8c1.1-0.7,2.5-1,4-1c1.1,0,2.1,0.2,3,0.5c0.9,0.3,1.7,0.8,2.3,1.5c0.7,0.7,1.2,1.5,1.5,2.5
		c0.4,1,0.5,2.1,0.5,3.3v1.2h-13.3v-2.8h8.8c0-0.5-0.1-1-0.4-1.4c-0.2-0.4-0.6-0.7-1-0.9c-0.4-0.2-0.9-0.3-1.4-0.3
		c-0.5,0-1,0.1-1.5,0.4c-0.4,0.2-0.8,0.6-1,1c-0.3,0.4-0.4,0.9-0.4,1.4v2.9c0,0.6,0.1,1.2,0.4,1.6c0.2,0.5,0.6,0.8,1,1.1
		c0.5,0.3,1,0.4,1.6,0.4c0.4,0,0.8-0.1,1.2-0.2c0.4-0.1,0.7-0.3,0.9-0.5s0.4-0.5,0.6-0.9l4.5,0.1c-0.2,1-0.6,1.9-1.2,2.6
		c-0.6,0.7-1.4,1.3-2.5,1.7C184.8,30.8,183.6,31,182.3,31z"/>
	<polygon class="st1" points="35.2,11.5 35.2,6.3 25.6,0 25.6,4 31.9,8.2 31.9,11.4 29,13.4 27,11.9 27,9.4 23.7,7.2 23.7,11.7 
		18.5,14.9 18.5,23.3 14.8,25.4 12.9,23.9 12.9,21.5 15.2,20 15.2,19.9 15.2,16.2 11.2,18.9 8.1,16.9 5.3,18.7 9.7,21.7 9.7,23.5 
		6.5,25.7 3.3,23.5 3.3,16.2 8.1,13 8.1,9.9 14.2,13.8 19.4,10.4 16.2,8.6 14.2,9.9 9.7,7 14.7,4 19.1,6.6 19.1,2.8 14.7,0.2 4.8,6 
		4.8,11.2 0,14.5 0,25.3 4.8,28.5 4.8,33.7 14.4,40 14.4,36 8.1,31.8 8.1,28.6 11,26.6 13,28.1 13,30.6 16.3,32.8 16.3,28.3 
		21.6,25.1 21.6,16.7 25.2,14.6 27.1,16.1 27.1,18.5 24.8,20 24.8,20.1 24.8,23.8 28.8,21.1 31.9,23.1 34.7,21.3 30.3,18.3 
		30.3,16.5 33.5,14.3 36.7,16.5 36.7,23.8 31.9,27 31.9,30.1 25.8,26.2 20.6,29.6 23.8,31.4 25.8,30.1 30.3,33 25.3,36 20.9,33.4 
		20.9,37.2 25.3,39.8 35.2,34 35.2,28.8 40,25.5 40,14.7 	"/>
	<g>
		<g>
			<path class="st2" d="M55,12.8h7.2c4,0,5.5,2.1,5.5,4.2c0,1.9-1,3.1-2.1,3.6c1.1,0.4,2.6,1.6,2.6,3.8c0,2.8-2.2,5-5.7,5H55V12.8z
				 M61.8,19.3c1.7,0,2.4-0.8,2.4-1.9c0-1.2-0.9-1.8-2.3-1.8h-3.4v3.8H61.8z M58.5,26.6h3.2c1.9,0,2.8-0.8,2.8-2.3
				c0-1.3-0.9-2.2-2.8-2.2h-3.2V26.6z"/>
			<path class="st2" d="M70.8,20.3c0-1.2,0-2.3,0-3.4h3.4c0,0.3,0.1,1.5,0.1,2.2c0.5-1.4,1.9-2.5,4-2.5v3.3c-2.5-0.1-4,0.6-4,4v5.4
				h-3.4V20.3z"/>
			<path class="st2" d="M90.5,26.1c0,1.2,0.1,2.9,0.2,3.2h-3.3c-0.1-0.2-0.2-0.9-0.2-1.2c-0.5,0.7-1.3,1.5-3.5,1.5
				c-3,0-4.3-2-4.3-3.9c0-2.8,2.3-4.1,5.9-4.1c0.6,0,1.4,0,1.8,0v-0.8c0-0.9-0.3-1.8-1.9-1.8c-1.5,0-1.8,0.6-1.9,1.5H80
				c0.2-2.2,1.6-4,5.3-4c3.3,0,5.1,1.3,5.1,4.3V26.1z M87.2,23.7c-0.3,0-0.9,0-1.4,0c-2.1,0-2.8,0.6-2.8,1.8c0,0.9,0.6,1.7,1.8,1.7
				c2.2,0,2.5-1.5,2.5-3.2V23.7z"/>
			<path class="st2" d="M93.6,11.8h3.4v3.1h-3.4V11.8z M93.6,16.9h3.4v12.4h-3.4V16.9z"/>
			<path class="st2" d="M100.2,20c0-1.1,0-2.2,0-3.1h3.3c0.1,0.3,0.1,1.2,0.1,1.6c0.4-0.8,1.4-1.9,3.6-1.9c2.5,0,4.1,1.7,4.1,4.8
				v7.9h-3.4v-7.5c0-1.4-0.5-2.4-2-2.4c-1.5,0-2.3,0.8-2.3,3v6.9h-3.4V20z"/>
			<path class="st2" d="M116.9,25.6c0.3,1,1.1,1.5,2.4,1.5c1.3,0,1.7-0.5,1.7-1.2c0-0.8-0.5-1.1-2.3-1.5c-4-1-4.7-2.3-4.7-4
				c0-1.8,1.3-3.8,5-3.8c3.8,0,5,2.1,5.2,3.7h-3.3c-0.1-0.5-0.4-1.3-2-1.3c-1.1,0-1.5,0.5-1.5,1.1c0,0.6,0.4,0.9,2.4,1.4
				c4.1,1,4.7,2.4,4.7,4.2c0,2.1-1.6,3.9-5.4,3.9c-3.8,0-5.3-1.8-5.6-4H116.9z"/>
			<path class="st2" d="M129,16.9c1.3,4.3,2.4,8.1,2.6,9.3h0c0.3-1.3,1-4,2.5-9.3h3.4l-4.2,12.8c-1.2,3.6-2.2,4.6-5.2,4.6
				c-0.3,0-1,0-1.6-0.1v-2.8c0.2,0,0.6,0.1,0.9,0.1c1.3,0,1.9-0.4,2.4-1.8l-4.5-12.8H129z"/>
			<path class="st2" d="M139.2,20c0-1.1,0-2.2,0-3.1h3.3c0.1,0.3,0.1,1.2,0.1,1.6c0.4-0.8,1.4-1.9,3.6-1.9c2.5,0,4.1,1.7,4.1,4.8
				v7.9H147v-7.5c0-1.4-0.5-2.4-2-2.4c-1.5,0-2.3,0.8-2.3,3v6.9h-3.4V20z"/>
			<path class="st2" d="M152.2,16.9h1.9v-3.4h3.4v3.4h2.4v2.6h-2.4v6.1c0,0.9,0.3,1.3,1.3,1.3c0.2,0,0.5,0,0.8,0v2.4
				c-0.7,0.2-1.6,0.2-2.3,0.2c-2.4,0-3.2-1.3-3.2-3.5v-6.5h-1.9V16.9z"/>
			<path class="st2" d="M165.6,11.8v6.6c0.5-0.8,1.6-1.8,3.6-1.8c2.3,0,4.2,1.4,4.2,4.7v8h-3.4v-7.5c0-1.6-0.6-2.5-2-2.5
				c-1.9,0-2.3,1.4-2.3,3.3v6.6h-3.4V11.8H165.6z"/>
		</g>
	</g>
	<rect x="134.8" y="35.6" class="st3" width="101.9" height="2.1"/>
	<g class="st4">
	</g>
</g>
</svg>
